/* XPM */
static char *_61be1cd187e495090bc4b986c900557tEvadO2F0y0LelnK[] = {
/* columns rows colors chars-per-pixel */
"64 64 227 2 ",
"   c #300200",
".  c #27160D",
"X  c #2B1B14",
"o  c #311F13",
"O  c #3B2A1D",
"+  c #3A251B",
"@  c #3C210E",
"#  c #3D2C23",
"$  c #382720",
"%  c #4C1D0D",
"&  c #452818",
"*  c #5B2D1B",
"=  c #64311E",
"-  c #432E25",
";  c #4B2D22",
":  c #433024",
">  c #4B3225",
",  c #44342B",
"<  c #4B352B",
"1  c #4C392D",
"2  c #4D3825",
"3  c #5C3426",
"4  c #53352A",
"5  c #5C362A",
"6  c #53392C",
"7  c #5B3B2D",
"8  c #463831",
"9  c #4C3B32",
"0  c #4C3A38",
"q  c #543D34",
"w  c #5B3E32",
"e  c #513D38",
"r  c #6D3C2C",
"t  c #663A28",
"y  c #713D2B",
"u  c #623D31",
"i  c #554235",
"p  c #5C4236",
"a  c #55433B",
"s  c #5B443B",
"d  c #5D4A3C",
"f  c #4F4136",
"g  c #6B412E",
"h  c #7A432E",
"j  c #634334",
"k  c #6B4534",
"l  c #6C4936",
"z  c #63453B",
"x  c #6B453A",
"c  c #64493C",
"v  c #6B493C",
"b  c #654836",
"n  c #744432",
"m  c #7B4432",
"M  c #724A36",
"N  c #7A4A35",
"B  c #724538",
"V  c #734C3C",
"C  c #7B4D3B",
"Z  c #6F503E",
"A  c #7C513D",
"S  c #74513F",
"D  c #5D4641",
"F  c #5D4B42",
"G  c #564140",
"H  c #5E5144",
"J  c #644C43",
"K  c #6B4E44",
"L  c #644F49",
"P  c #6E4E4A",
"I  c #624743",
"U  c #724E43",
"Y  c #7A4E42",
"T  c #645145",
"R  c #6D5245",
"E  c #66534A",
"W  c #6B544A",
"Q  c #6C594D",
"!  c #675B4D",
"~  c #735344",
"^  c #7B5444",
"/  c #73554A",
"(  c #7B564B",
")  c #745A4D",
"_  c #7C5B4D",
"`  c #7B5847",
"'  c #6B5750",
"]  c #6C5B52",
"[  c #675750",
"{  c #735751",
"}  c #735C53",
"|  c #7B5D53",
" . c #765D57",
".. c #756255",
"X. c #7C6255",
"o. c #75635A",
"O. c #7C645B",
"+. c #7C695C",
"@. c #75685E",
"#. c #776253",
"$. c #7B6761",
"%. c #7C6B63",
"&. c #776961",
"*. c #7E7269",
"=. c #7F7262",
"-. c #834D3A",
";. c #854E3A",
":. c #84533D",
">. c #8C523E",
",. c #845443",
"<. c #8B5542",
"1. c #845845",
"2. c #8C5A45",
"3. c #83564A",
"4. c #8A5749",
"5. c #845C4C",
"6. c #8C5D4C",
"7. c #935A45",
"8. c #935D4B",
"9. c #995E4A",
"0. c #915747",
"q. c #835E53",
"w. c #8B5E52",
"e. c #825F59",
"r. c #955E51",
"t. c #86604E",
"y. c #8C604D",
"u. c #93614D",
"i. c #9A624E",
"p. c #846254",
"a. c #8B6354",
"s. c #846957",
"d. c #8D6856",
"f. c #83655B",
"g. c #8B655B",
"h. c #836A5D",
"j. c #8C6A5C",
"k. c #936454",
"l. c #9A6553",
"z. c #946956",
"x. c #9C6A56",
"c. c #93665A",
"v. c #9C6759",
"b. c #936B5B",
"n. c #9B6C5C",
"m. c #8B705E",
"M. c #9D715D",
"N. c #A26A55",
"B. c #A26C5A",
"V. c #A86F5D",
"C. c #A3715C",
"Z. c #AA735E",
"A. c #836661",
"S. c #846C63",
"D. c #8B6D63",
"F. c #856E69",
"G. c #8C6E6B",
"H. c #896660",
"J. c #936E62",
"K. c #9B6E62",
"L. c #857165",
"P. c #8B7266",
"I. c #85736A",
"U. c #8C746B",
"Y. c #8D7A6D",
"T. c #857868",
"R. c #937265",
"E. c #9B7363",
"W. c #9F7867",
"Q. c #93756B",
"!. c #9B756A",
"~. c #937A6D",
"^. c #9B7A6D",
"/. c #8C7671",
"(. c #8E7A72",
"). c #867770",
"_. c #937571",
"`. c #947C73",
"'. c #9A7D73",
"]. c #917F79",
"[. c #9C7E79",
"{. c #9A7771",
"}. c #A37463",
"|. c #AC7563",
" X c #A57A65",
".X c #AB7A65",
"XX c #A2766B",
"oX c #A37B6C",
"OX c #AB7B6B",
"+X c #A87768",
"@X c #B27963",
"#X c #B37C6B",
"$X c #B97F6D",
"%X c #A47D72",
"&X c #AA7C72",
"*X c #B67C70",
"=X c #948174",
"-X c #9C8276",
";X c #94827C",
":X c #9C837A",
">X c #9D897C",
",X c #AC806D",
"<X c #BA816D",
"1X c #A28276",
"2X c #AB8273",
"3X c #A3857B",
"4X c #AA857A",
"5X c #A38A7E",
"6X c #A8887D",
"7X c #B48474",
"8X c #B68879",
"9X c #C08D78",
"0X c #9B8580",
"qX c #9F8B82",
"wX c #A48B82",
"eX c #AB8D83",
"rX c #A98D88",
"tX c #A18B86",
"yX c #B08F80",
"uX c #A39484",
"iX c #AA988B",
"pX c #AD9388",
"aX c #B79A91",
"sX c #AF9D93",
"dX c #AFA292",
"fX c #BAA7A1",
"gX c #C0A297",
/* pixels */
"} ! R X./ K _ ~ ~ / ( / P W W [ ' ] } } } ) ) ` 5.` ` ~ ^ U ( } ( ~ ~ ~ _ _ ( K / Q E E [ o. .' ! H d Q ) W U / / | X.~ _ X.` ` ",
"Q P.~.P.) f.%XD.D.j.f.O.S.`.]./.).(.].Y.h.f.s.j.p.b.M.d.j.E.J.a.#.Q.1X1X{.^.%X4XA.P.(.;X].).I.%.T.;X>XY.D.!.^.P.Q.j.#.) ~.8X^.M.",
"d ) ~.-X_ u p.^.^.q.f.1X3XA.W  .'  .%.U.P.j.f.| d.b.j.t.A V ^ ^ d.Z j l Y Y U | Q.I.Y.(./.S.%.S.=X=.] W } g.D.j.v _ j.` ~ ` ^ t.",
"pX5X-X~.j.m.^.s.g.J.R.D.P._.`.(./.$.} O.Q.1X1X,XM.k.t.z.v.6.w.E.t.W.,Xb.J.XX&X{.p.} O.T.(.I.%.$.f T X.h.e.( q.g.g.j.j.5.5.b.k.z.",
"X.Y.=XR.| t.R.a.J.a.D.1XQ.R q s %. .L W | j.s.5.b.1.,.x. XC.y.2.3.w.r.K.v.w.w.w.J.Q.U.I.U.Y.Y.T.>X>XY.h.R.4X%Xc.W.d.t.l 2. XB.x.",
"b d ` m.s._ j.b.d.R.d.| f.Q.U.o.F.G._.:X3X%XJ.a.z.x.x.l.k.l.u.<.k.w.K.K.,.r B c.| j.Q.m.f.S.U.P.L.T.`.Q.H.g.w.w.A y.y.A 1.C.Z..X",
"..Y.R.#.j Z M.d.p.~ ( R.-XQ.U.`.S.%.A.A.D.j.b.c.1.l.x.2.-.>.i.N.N k.r.w.r.*XXX3.3 z ) s.L.P.D.S.@.p 6 v q.w.w.K.M A 2.C y.@XZ.Z.",
"=Xm.m.R.m.t.p.l g.5._ j.j.f.h.`.0X].U.D.R.J.b.d.E.x.l.i.i.i.i.8.6.4.0.v.r.r.v.*X2Xd.~ T ..f.P.~.-XY.D.J.K.K.c.c. X Xx.N h 7.7.9.",
"..R s.^.s._ d.b.q.^ ~ ; x 5X`.A.U.F. .{ / q.c.M.y.8.8.N.@X$XZ.i.2.2.,.m m r.v.K.XX&X4X_.m.m.h.} S.`.{.H.( w.v.K.OXM.u.C :.u.7.>.",
"Y...f.s._ q.R.j.g.R.^.D./ c X.qXF.U./.G.R.R.5.k ,.8.u.u.8.7.8.8.<.l.+X#X*X|.v.r.H.H.~.3X=X+.X.D.4 | %X%XK.K.w.C 6.l.z.:.:.C.@XN.",
") ..`.-XX._ s.g.J.p./ G.Q.| W F (./.U.U.Q.J.D.k.r n C :.7.l.N.n.6.2.,.<.,.,.w.c.!.^.~.s.) ) / / D.{ K 3.K.K.r.w.N ^ 1.N :.C.N.N.",
"T c R / / s.j.q._ !.1XQ.O.o.{ D L o./._.H.p.g.b.,XM.6.C N ,.6.6.k.b.}.}.v.4.C x l _ j.h.P.-X`.S.3Xf.( e.w.3.w.}. Xk.6.A 2.C.i.7.",
"Y.T.L.O.f.D.D.S./ | {. .A.:X$.E E %.`.U.D.s.f.5.` d.M.E.v.a.6.5.A t.b.z.z.E.K.K.p.p.h.Y.P.h.h.D.P.~.R.b.c.K.c.w.M.d.t.M A M.x.y.",
"`.qXuX`.f.O.j.Q.wXD.Q. .o.].;XfX>X@.W O.h._ ) p.d.d.5.1.3.5.5.5.t.m.M.z.v.n.c.5.q.f.f.} W ) S.'.~.~.j.p.w.n.K.c.t.m.M.S ` ,X,X,X",
"] E a q J )  .| e./ A.A.%. .F [ %.a > T } b 7 v V V k k V ^ U l Z l l g l C ^ Y c X.S.} Q ..O.| | | p.g.3.k Y d.` s.m.S l S S A ",
"E T F R  .} K z w I w 4 q w I e 1 p s 1 4 w j 7 7 j j w 5 7 j b ` b i 3 5 5 7 w j w p b c c c J T v z u u u 7 3 j 7 c S Z b g Z ",
"S.S.I.h.S.I.O.S.S.j.f.g.E.J.g.b.!.R.t.m.m.m.j.s.f.| ) ) f.s.s.X.f.X.O.X.f.G.D.e.D.D.D.j.s.t.( m.5.| _ _ | s.f.O.O.Q. . .D.R.A.G.",
"I.;XT.m.S.A.I.^.P.%X%XJ.K.}.n.k.d.t.S d.!.-XR.P.eX-X~.~.~.~.1X6X=X~.5X:XO.| '.%X{.6X1Xp.~ _ a.W.W.!.1X2X1XQ.'.tX(.I.tX0XtXF.rX[.",
"1 O o . - d R o.D.j.q.v V k.n.6.y.t.S t.~ ~ ) X.D.Q.~.Q.R.Q.j.X.~.P.f.`.3X| 4 I _ v _ ^.oXp.V a.d.b.z.j.D.~.^.I.S.(.$.S.F. .{ { ",
"=X..@.T +.tXL.3X~.D.R.W.K.K.B.k.b.t.l d.R.j.~ w P s.D.f.j.~.P.v ~ m.R.| / U.J.K | ( 5.p.d.t.l M 5.z.b.p.s.j.W : D qX .< e [.S.u ",
"uX>XdXuXiXuXY.-XX._ b.W.k.6.k.l.z.t.M _ ` p.R.3Xf.D.| z z / ( K ) 6Xm.4 z H.!.yX^.^.E.q.^ 5.1.a.6.5.k.E.!.Q.'.:X>XS.Y.Y.[.D.wX:X",
"@.=X=.=X>XT.-XP.-X!.R.n.K.}.+X}.1.A u a.W.!.g.} _.Q.{.'.{.!.1XeX1XP.-XgXaX&X{.R.3.( w.g.z.5.N 6.OXM.k.a.b.R.~.'.U.'.`.[.wX[.'.S.",
"=X=XX.m.=X~.-X~.R.b.a.k.k.<.y y x.a.^ c.c.f.p.f.f.D.Q.{.R.| U z K _ ~ j I ( e.J.( q.w.^ ^ 6.A C ,.,.,.q.J.!.S./ ' L.E L.`.U.{ S.",
"=X#.~...+.~.~ P.f.g.c.+Xn.y y V.b.1.j 5.g.J.H.D./ | O.| R.6X^.| | q.j.s.( J.!.e.K.g.K.J.d.1.2.8Xx.4.6.b.E.D.f.Q.`.:X>XY.L.} Y.Y.",
"#.T.5X-X_.'.'.!.!.E.c.w.l.#X*X|.z.5.l t x q.| U H.H._.[.'.R._.wX1Xj.!.eX-Xg.g.e.g.J.c.w.5.5.u.M.OX8X8XE.q.5.D.`.:XU.%.U.Y.S.+.O.",
"m.=XY.m.R.Q.{.!.!.Y Y K.OXr.0.N.k.5.^ U k 4 ; > ; | '.D.| R.%X'.P.D.D.R @ & u / g.q.x U b.c.^ 5.3.r.K.K.J.D.) J A.(.;XU.U.].~.S.",
"U.D.D.P.R.G.H.f.P w.K.v.v.}.|.x.}.t.q.!.4X1XD.j.Q.A.G.[.G.K v X.h.s.I.U.D._.G./ f.U g.^._ V p.c.6.w.a.c.{.eX5X`.F o.L.I.I.U.(.Y.",
"S.R.~.~./.H.e.f.J.{.K.J.6.,.6.d.b.t.~ ~ } D.3XeXwX| s / D.S.R w X.f.~.~.) L H.%X{ 7 U j.^ ^ d.t. XK.g.p.s.j.Q.].I./.(.).F.O.o. .",
"F.U.G.$. .A.%.A._.{ ~ g.E.c.z.,X` 5.p.s.g.s.f.O.I f.U.A.{ | Q.:XP.o.@.I.F.o.Q { Q.{.f.| -XR.| d.a.p.a.g.| I s L $.F. .G 0 F G ; ",
"O.o.] F [ o.&. .P { ~ R / X.A b m.` ~ p.Q.R.U.Y.S. .| F.S.{ ) P.Y.I.L.L.I.U.U.U.O.'.U.| s.X.` s.j.g.s.Q.U. . .o.;X]./.$.F.;X0X].",
"9 < , , 8 8 8 , $ # < i 7 6 7 j u j Z ) W d z T L P T J J c s q , 9 , # # # # $ - $ 1 6 4 c ~ b _ U z p w s G F L 0 8 0 G G G I ",
"o.o.&.&. .[ [ &.o.] ! W R R ~ ) ` t.5.` ( p.( v P / ) / / ) ) ) Q ! F G F D a a K E Q / ) _ X.( K / U x z P / P L [ L I I I I G ",
"#.T.=XY.@.o.=X(.).Y.Y.Y.~.~.~.P.!.oXoXE.d.b.OX2X,X X X.X X XOXW.) U.:X=XY.U.U.P.P.S.-X5XR.P.{.R.J.j.R.oXoXC.oX8XOXOXoXf.J.'.`.`.",
"=X=X=Xh.Q ..&.E E ] +.L.~.~.~.R.b.z.M.M.u.<.7.9.N.i.u.7.<.2.i.l.p.J R S.P.} Q h.~.W ) ~.`.R.Q.R.p.c.M.v.x.C.Z.@X|.}. X3.f.D.Q.`.",
"-X+...Y.=.] %.=.T.U.=X=XQ.h.p.X.( ^ a.b.k.A -.,.2.2.i.B.x.x.k.a.g.f. ./ ) O.L.P.L.} | } / | Q.Q.W.d.p.z.x.2.>.i.N.k.k.^ P.~.U.S.",
"#.#...O...o./.L./.S...c p d / f.^.g.a.6.^ ,.k.B.2.-.:.2.y.z.k.6.~ D.5X-Xh.X.h.=X| | f.Q.%XwXQ.U ` j.M.k.M.Z.u.= 8.k.n.` s.s.+.L.",
"h.>XiX>XQ E Y.(.o.+.L.Y.Q.h.f.s.3.e.K.XXXXK.B.r.u.2.y.u.r.k.v.w.j.| / f.5XrXU.W `.D.Q.`.G.A.e.g.t.` ` k.z.i.i.x.M.x.d.A m.Y.T.T.",
"=Xs...m.A.o.S.O.(.I.U.`.~.Q.D.D.e.w.e.w.w.K.XXB.i.x..X#XB.l.k.w.| A.A.f.h.Q.`.Y.Q. .I K H.%X{.H.d.W.M.N g >.x.x.:.A A Z m.~.m.X.",
"~ L.=XY.Q } ].].G.S.S.`.-X'.R.D.H.w.c.K.r.w.4.-.l.9.9.9.<.4.u.z.q.| S.[.'.A.h.`.rXpX{.{ P f.H.H.g.k.b.x.u.:.-.>.t N z.` ~ b T @.",
"-XP.s.~.$.E  . ./.O.}  .G.U.D.J.r.4.w.K.V.K.N.l.v.8.9.x.Z.|.|.x.q.D.U.f.A.Y.U.) K S.[.wX%XD.( ( V C Y 4.u.C.N.i.9X<X2Xt.X.#...m.",
"P.Y.} T T E %.(.0X0X_.S.S.Q.R.D.J.v.v.v.l.9.2.<.>.>.>.>.>.;.;.C | F.G.D.F.U.O.I W I W f.H.A.A.e.3.Y y 4.l.Z.x.Z.u.u.w.5.J.1X~.D.",
">X+.W O.O.W o.o.$.S.F.F.O.| O.g.Y 3.4.6.8.k.9.9.i.@X<XZ.N.>.Z. X( G.[._./.U.Y.U.s W G.tX`.H.H.G.XX8X8X7Xn.<.m <.i.y.n l q.D.S.f.",
"c ) Y.`. .o.(.o.tX).&.U.`.f.W c q.k.v.n.n.C.|.Z.N.u.h h >.C.Z.y.g.} W L L W O.Y.tX]./.`.`.[.[.{.XX&X}.K.k.k.i.C.C.}.z.a.H.J.D.G.",
"=XL.T.L.[ [ /.0X' F F ] O.o.O.j.q.q.q.q.5.1.1.6.y.C.C.y.-.-.u.z.| F. .< e L.(.@.(.U.`._.H.O.D.D.e.w.( 5.v.B.z.u.d.C.R._ _ A.f.| ",
"L.I.L.*.%.] %.).;X(.)./.I.S.S.P.h.D.j.j.a.d.d.z.1.t.y.t.k.}.b.5. .} T.iXsX;XI.;X+.+.I.=X`././.F.G.R.D.q.s.t.t.t.a.d.q._ _.rXrX[.",
"T =.@.H [ &.).).*.*.&.$.S.I.A...} Q { ) ) _ X.p.j g l l ` m.D.j.S.L.] F T &.L.@.@.E H E } O.f.{ O.f.| c ~ S t.s._ ^ / } O.{ L L ",
"d 9 , F [ H G 8 # 8 a 0 , : , i , : # # : > > > p 6 6 > 2 p p J } E a f a F f # , , 9 1 - # , , O O : + 2 O O @ & ; p )  .D G [ ",
"P.I./.)...&.;X&.I.%.O.%.%.S.S.S.&.o.} ....f.X.#.~ ~ p._ ) X.} A.o.} } ....! ! ! o.] ] ] } o.f.o.+...X.Q ..Z S ) ~ ) X.S.F.S. .$.",
"~.{.!.Q.[._._.{._./.].[._.H.O.A.Q } { q.H.b.a.8.n.K.n.v.K.W.W.E.{.P.U.~.~.I.S.o...L.I.I.`.S. .G.L.G.Q.U.f./ | H.g.f.U 5 Y ^.K.J.",
"g.g.H.J.g.P L A.G.G.G.Q.H.$.H._.f.h.D.K.K.a.k..Xx.B.}.v.,.^ 5.J.^.3X'.R.P.f...h.L.) P.'.A. .O.G.s.R.'.{._.`.'.[.{.%XJ.w.3   % ,.",
"( q.K 4 K Q._.$.F.F.F.G._.D.A.O.Q.P._ ` b.E.,.= x.B.x.8.6.5.S t | v | -X'.P.P.h.I.Y.O.} U.O.K H.S.D.D.D.D.D.U.!.g.Q.K.4X2XoX8Xw.",
"u ( f.g.f.O.S.`.$.O.$.G.~.U.o.W ..h.s.| g.n.8.C y N u.M. X XoX1Xp.D.~ 7 T | W Q / } A.Q s / O.Q.Q.S.U._.~.L.D.R.A.s.v a.oX,X8XOX",
"!.R.d.X.J 6 > i  .] E d p J ..h.+.X.#.t.t.A 2..XC.h = g :.t.a.W.1XD.R.D.R W D.R.D.U.:XY.A.f.P z T ~.>Xm.T.>X=X#.f.~.f.^ M.t.C C.",
"v R.1X-X^.'.`.Y.O.T.~.~.Y.Y.P.f.1XP.p.d.!.E.x.M.N.,X7XC.y.A M b l ( f.1XeXS.R f.'.`.f.| '._.f.wX5X=X=X5X>XT.T.-X1Xp.` ^ t.M.M.M.",
"!.#.v _ ~.'.~.~.:X~.O.) O.T.P.+.J X.p.t.z.}.B.l.i.Z.N.-.:. X,Xb.R.{.6X{.Q.:XU.w | | wXaXQ.{ { e.+.=X=X! Q =X=X~ s.7 l oX6.g N h ",
"t.M.p.v K p.h.f.h.A.f.X.X.s.X.` / _ s.d.M.M.N.Z.N.x.u.u.x.M.,X,X4XQ.R.%X3XQ.Q.3XwXwX[._.{.G.P | p d c Q h.T.m.| X.8Xd.k.OXy.x..X",
"a.a.b.J.U 7 v D.D.D.Q.'.Q.R.!.~._.q.q.^ 4.n.9.0.9.0.N.*X<XOXn.3.K.1X4X!.Q.3X-XD.} K / A.D. . .wX-X=X`.+.R / D.{.R.p.3.k.k.0.0.x.",
"g.v.g.e.H.!.Q.D.G.S.{ / D.D.f.p.R.R.q.g.,.y N.B.@X9X$XV.r.6.V * & z / K J ) | ) > J Q.:XQ.S. .| X.h.-X3X`.~.'.'.J.j.E.&X&X}.N.B.",
"E.g.q.J.!.f.e.H.:XP K f._ K | R.D.( q.R.XX+XB.N.;.0.B.@X+X+X+XK.w.D.Q.P.D.~.-X-XsX5XP.S.3Xf.K :XU.h.O.S.h.D.S.f.f.w.q.w.r.k.v.v.",
"U w.c.e.q.e.H.A.{ '.[.Q.[.{.D.Q.f.K q.V Y n.r.k.V.N.B.}.n.n.oX2XeX%X'.'.-X-X`.I.A.S.Y.U.A.o. .S.O.o.S.Q._.`.[.R.| e.w.w.w.k.6.4.",
"( g.J.f.f.R.G.S.{ 1 F %.S.I.-X`.(.=XO.f.p.t. Xz.<.6.k.6.t.j.m.q.P.j.m.Q.-X`.+.) +.L.W J '.3XO.G.S.Y.>X`.o.s D D R.P.j.p.c.K.K.a.",
"( R ~ ) W p e I ] @.a + 1 J s 1 F H E P.Q.a.t.` Y 4.n.XXM.a.~ 6 Z Q ) X.+.X...] T.] L.=XF.o.W Q  .] ' L G G L E W J w 4 w ~ 5.` ",
"& p z , ; 9 e 8 , $ # a 1 , < , # # @.+.) #.` M.A l v ` l i 2 6 6 q p i 2 f i d F ! W a L } D - $ X . X $ # , # - , 1 6 b b c j ",
"h.X...O.%.o.@.%.&.*.=.%.&.%.%.I.=.=.@.+.X._ s.S ` s.d._ ) s.L.X.X.f.=.#.) ......+.Q =.T...+.U.%.*.%.&.%.&.&.*.*.L.I.L.L.h.s.m.m."
};
